<svg id="my-svg" width="100%" xmlns="http://www.w3.org/2000/svg" xmlns:xlink="http://www.w3.org/1999/xlink" class="flowchart" style="max-width: 1512.14px; background-color: transparent;" viewBox="0 0 1512.140625 1071.2412109375" role="graphics-document document" aria-roledescription="flowchart-v2"><style>#my-svg{font-family:"trebuchet ms",verdana,arial,sans-serif;font-size:16px;fill:#333;}@keyframes edge-animation-frame{from{stroke-dashoffset:0;}}@keyframes dash{to{stroke-dashoffset:0;}}#my-svg .edge-animation-slow{stroke-dasharray:9,5!important;stroke-dashoffset:900;animation:dash 50s linear infinite;stroke-linecap:round;}#my-svg .edge-animation-fast{stroke-dasharray:9,5!important;stroke-dashoffset:900;animation:dash 20s linear infinite;stroke-linecap:round;}#my-svg .error-icon{fill:#552222;}#my-svg .error-text{fill:#552222;stroke:#552222;}#my-svg .edge-thickness-normal{stroke-width:1px;}#my-svg .edge-thickness-thick{stroke-width:3.5px;}#my-svg .edge-pattern-solid{stroke-dasharray:0;}#my-svg .edge-thickness-invisible{stroke-width:0;fill:none;}#my-svg .edge-pattern-dashed{stroke-dasharray:3;}#my-svg .edge-pattern-dotted{stroke-dasharray:2;}#my-svg .marker{fill:#333333;stroke:#333333;}#my-svg .marker.cross{stroke:#333333;}#my-svg svg{font-family:"trebuchet ms",verdana,arial,sans-serif;font-size:16px;}#my-svg p{margin:0;}#my-svg .label{font-family:"trebuchet ms",verdana,arial,sans-serif;color:#333;}#my-svg .cluster-label text{fill:#333;}#my-svg .cluster-label span{color:#333;}#my-svg .cluster-label span p{background-color:transparent;}#my-svg .label text,#my-svg span{fill:#333;color:#333;}#my-svg .node rect,#my-svg .node circle,#my-svg .node ellipse,#my-svg .node polygon,#my-svg .node path{fill:#ECECFF;stroke:#9370DB;stroke-width:1px;}#my-svg .rough-node .label text,#my-svg .node .label text,#my-svg .image-shape .label,#my-svg .icon-shape .label{text-anchor:middle;}#my-svg .node .katex path{fill:#000;stroke:#000;stroke-width:1px;}#my-svg .rough-node .label,#my-svg .node .label,#my-svg .image-shape .label,#my-svg .icon-shape .label{text-align:center;}#my-svg .node.clickable{cursor:pointer;}#my-svg .root .anchor path{fill:#333333!important;stroke-width:0;stroke:#333333;}#my-svg .arrowheadPath{fill:#333333;}#my-svg .edgePath .path{stroke:#333333;stroke-width:1px;}#my-svg .flowchart-link{stroke:#333333;fill:none;}#my-svg .edgeLabel{background-color:rgba(232,232,232, 0.8);text-align:center;}#my-svg .edgeLabel p{background-color:rgba(232,232,232, 0.8);}#my-svg .edgeLabel rect{opacity:0.5;background-color:rgba(232,232,232, 0.8);fill:rgba(232,232,232, 0.8);}#my-svg .labelBkg{background-color:rgba(232, 232, 232, 0.5);}#my-svg .cluster rect{fill:#ffffde;stroke:#aaaa33;stroke-width:1px;}#my-svg .cluster text{fill:#333;}#my-svg .cluster span{color:#333;}#my-svg div.mermaidTooltip{position:absolute;text-align:center;max-width:200px;padding:2px;font-family:"trebuchet ms",verdana,arial,sans-serif;font-size:12px;background:hsl(80, 100%, 96.2745098039%);border:1px solid #aaaa33;border-radius:2px;pointer-events:none;z-index:100;}#my-svg .flowchartTitleText{text-anchor:middle;font-size:18px;fill:#333;}#my-svg rect.text{fill:none;stroke-width:0;}#my-svg .icon-shape,#my-svg .image-shape{background-color:rgba(232,232,232, 0.8);text-align:center;}#my-svg .icon-shape p,#my-svg .image-shape p{background-color:rgba(232,232,232, 0.8);padding:2px;}#my-svg .icon-shape .label rect,#my-svg .image-shape .label rect{opacity:0.5;background-color:rgba(232,232,232, 0.8);fill:rgba(232,232,232, 0.8);}#my-svg .label-icon{display:inline-block;height:1em;overflow:visible;vertical-align:-0.125em;}#my-svg .node .label-icon path{fill:currentColor;stroke:revert;stroke-width:revert;}#my-svg .node .neo-node{stroke:#9370DB;}#my-svg [data-look="neo"].node rect,#my-svg [data-look="neo"].cluster rect,#my-svg [data-look="neo"].node polygon{stroke:#9370DB;filter:drop-shadow(1px 2px 2px rgba(185, 185, 185, 1));}#my-svg [data-look="neo"].node path{stroke:#9370DB;stroke-width:1px;}#my-svg [data-look="neo"].node .outer-path{filter:drop-shadow(1px 2px 2px rgba(185, 185, 185, 1));}#my-svg [data-look="neo"].node .neo-line path{stroke:#9370DB;filter:none;}#my-svg [data-look="neo"].node circle{stroke:#9370DB;filter:drop-shadow(1px 2px 2px rgba(185, 185, 185, 1));}#my-svg [data-look="neo"].node circle .state-start{fill:#000000;}#my-svg [data-look="neo"].icon-shape .icon{fill:#9370DB;filter:drop-shadow(1px 2px 2px rgba(185, 185, 185, 1));}#my-svg [data-look="neo"].icon-shape .icon-neo path{stroke:#9370DB;filter:drop-shadow(1px 2px 2px rgba(185, 185, 185, 1));}#my-svg :root{--mermaid-font-family:"trebuchet ms",verdana,arial,sans-serif;}</style><g><marker id="my-svg_flowchart-v2-pointEnd" class="marker flowchart-v2" viewBox="0 0 10 10" refX="5" refY="5" markerUnits="userSpaceOnUse" markerWidth="8" markerHeight="8" orient="auto"><path d="M 0 0 L 10 5 L 0 10 z" class="arrowMarkerPath" style="stroke-width: 1; stroke-dasharray: 1, 0;"/></marker><marker id="my-svg_flowchart-v2-pointStart" class="marker flowchart-v2" viewBox="0 0 10 10" refX="4.5" refY="5" markerUnits="userSpaceOnUse" markerWidth="8" markerHeight="8" orient="auto"><path d="M 0 5 L 10 10 L 10 0 z" class="arrowMarkerPath" style="stroke-width: 1; stroke-dasharray: 1, 0;"/></marker><marker id="my-svg_flowchart-v2-pointEnd-margin" class="marker flowchart-v2" viewBox="0 0 11.5 14" refX="11.5" refY="7" markerUnits="userSpaceOnUse" markerWidth="10.5" markerHeight="14" orient="auto"><path d="M 0 0 L 11.5 7 L 0 14 z" class="arrowMarkerPath" style="stroke-width: 0; stroke-dasharray: 1, 0;"/></marker><marker id="my-svg_flowchart-v2-pointStart-margin" class="marker flowchart-v2" viewBox="0 0 11.5 14" refX="1" refY="7" markerUnits="userSpaceOnUse" markerWidth="11.5" markerHeight="14" orient="auto"><polygon points="0,7 11.5,14 11.5,0" class="arrowMarkerPath" style="stroke-width: 0; stroke-dasharray: 1, 0;"/></marker><marker id="my-svg_flowchart-v2-circleEnd" class="marker flowchart-v2" viewBox="0 0 10 10" refX="11" refY="5" markerUnits="userSpaceOnUse" markerWidth="11" markerHeight="11" orient="auto"><circle cx="5" cy="5" r="5" class="arrowMarkerPath" style="stroke-width: 1; stroke-dasharray: 1, 0;"/></marker><marker id="my-svg_flowchart-v2-circleStart" class="marker flowchart-v2" viewBox="0 0 10 10" refX="-1" refY="5" markerUnits="userSpaceOnUse" markerWidth="11" markerHeight="11" orient="auto"><circle cx="5" cy="5" r="5" class="arrowMarkerPath" style="stroke-width: 1; stroke-dasharray: 1, 0;"/></marker><marker id="my-svg_flowchart-v2-circleEnd-margin" class="marker flowchart-v2" viewBox="0 0 10 10" refY="5" refX="12.25" markerUnits="userSpaceOnUse" markerWidth="14" markerHeight="14" orient="auto"><circle cx="5" cy="5" r="5" class="arrowMarkerPath" style="stroke-width: 0; stroke-dasharray: 1, 0;"/></marker><marker id="my-svg_flowchart-v2-circleStart-margin" class="marker flowchart-v2" viewBox="0 0 10 10" refX="-2" refY="5" markerUnits="userSpaceOnUse" markerWidth="14" markerHeight="14" orient="auto"><circle cx="5" cy="5" r="5" class="arrowMarkerPath" style="stroke-width: 0; stroke-dasharray: 1, 0;"/></marker><marker id="my-svg_flowchart-v2-crossEnd" class="marker cross flowchart-v2" viewBox="0 0 11 11" refX="12" refY="5.2" markerUnits="userSpaceOnUse" markerWidth="11" markerHeight="11" orient="auto"><path d="M 1,1 l 9,9 M 10,1 l -9,9" class="arrowMarkerPath" style="stroke-width: 2; stroke-dasharray: 1, 0;"/></marker><marker id="my-svg_flowchart-v2-crossStart" class="marker cross flowchart-v2" viewBox="0 0 11 11" refX="-1" refY="5.2" markerUnits="userSpaceOnUse" markerWidth="11" markerHeight="11" orient="auto"><path d="M 1,1 l 9,9 M 10,1 l -9,9" class="arrowMarkerPath" style="stroke-width: 2; stroke-dasharray: 1, 0;"/></marker><marker id="my-svg_flowchart-v2-crossEnd-margin" class="marker cross flowchart-v2" viewBox="0 0 15 15" refX="17.7" refY="7.5" markerUnits="userSpaceOnUse" markerWidth="12" markerHeight="12" orient="auto"><path d="M 1,1 L 14,14 M 1,14 L 14,1" class="arrowMarkerPath" style="stroke-width: 2.5;"/></marker><marker id="my-svg_flowchart-v2-crossStart-margin" class="marker cross flowchart-v2" viewBox="0 0 15 15" refX="-3.5" refY="7.5" markerUnits="userSpaceOnUse" markerWidth="12" markerHeight="12" orient="auto"><path d="M 1,1 L 14,14 M 1,14 L 14,1" class="arrowMarkerPath" style="stroke-width: 2.5; stroke-dasharray: 1, 0;"/></marker><g class="root"><g class="clusters"><g class="cluster" id="my-svg-DB" data-look="classic"><rect style="" x="8" y="934.5" width="1474.546875" height="128.74114990234375"/><g class="cluster-label" transform="translate(584.953125, 934.5)"><foreignObject width="320.640625" height="24"><div xmlns="http://www.w3.org/1999/xhtml" style="display: table-cell; white-space: nowrap; line-height: 1.5;"><span class="nodeLabel"><p>Persistence Layer (Prisma + SQLite/Postgres)</p></span></div></foreignObject></g></g><g class="cluster" id="my-svg-Subscribers" data-look="classic"><rect style="" x="30.82421875" y="756.5" width="956.5078125" height="104"/><g class="cluster-label" transform="translate(406.328125, 756.5)"><foreignObject width="205.5" height="24"><div xmlns="http://www.w3.org/1999/xhtml" style="display: table-cell; white-space: nowrap; line-height: 1.5;"><span class="nodeLabel"><p>Subscriber Layer (Observers)</p></span></div></foreignObject></g></g><g class="cluster" id="my-svg-Core" data-look="classic"><rect style="" x="102.40234375" y="409" width="792.80859375" height="273.5"/><g class="cluster-label" transform="translate(459.736328125, 409)"><foreignObject width="78.140625" height="24"><div xmlns="http://www.w3.org/1999/xhtml" style="display: table-cell; white-space: nowrap; line-height: 1.5;"><span class="nodeLabel"><p>Event Core</p></span></div></foreignObject></g></g><g class="cluster" id="my-svg-API" data-look="classic"><rect style="" x="915.2109375" y="256" width="588.9296875" height="297.5"/><g class="cluster-label" transform="translate(1118.78515625, 256)"><foreignObject width="181.78125" height="24"><div xmlns="http://www.w3.org/1999/xhtml" style="display: table-cell; white-space: nowrap; line-height: 1.5;"><span class="nodeLabel"><p>API Layer (Node/Express)</p></span></div></foreignObject></g></g><g class="cluster" id="my-svg-Field" data-look="classic"><rect style="" x="1162.6484375" y="8" width="242.375" height="174"/><g class="cluster-label" transform="translate(1244.09375, 8)"><foreignObject width="79.484375" height="24"><div xmlns="http://www.w3.org/1999/xhtml" style="display: table-cell; white-space: nowrap; line-height: 1.5;"><span class="nodeLabel"><p>Field Layer</p></span></div></foreignObject></g></g></g><g class="edgePaths"><path d="M1283.836,122L1283.836,132C1283.836,142,1283.836,162,1283.836,178.167C1283.836,194.333,1283.836,206.667,1283.836,219C1283.836,231.333,1283.836,243.667,1276.484,253.69C1269.132,263.714,1254.429,271.428,1247.077,275.285L1239.726,279.142" id="my-svg-L_C_REST_0" class="edge-thickness-normal edge-pattern-solid edge-thickness-normal edge-pattern-solid flowchart-link" style=";" data-edge="true" data-et="edge" data-id="L_C_REST_0" data-points="W3sieCI6MTI4My44MzU5Mzc1LCJ5IjoxMjJ9LHsieCI6MTI4My44MzU5Mzc1LCJ5IjoxODJ9LHsieCI6MTI4My44MzU5Mzc1LCJ5IjoyMTl9LHsieCI6MTI4My44MzU5Mzc1LCJ5IjoyNTZ9LHsieCI6MTIzNi4xODM0NDM1MDk2MTU1LCJ5IjoyODF9XQ==" data-look="classic" marker-end="url(#my-svg_flowchart-v2-pointEnd)"/><path d="M1184.719,335L1184.719,341.167C1184.719,347.333,1184.719,359.667,1184.719,372C1184.719,384.333,1184.719,396.667,1184.719,409.708C1184.719,422.75,1184.719,436.5,1184.719,443.375L1184.719,450.25" id="my-svg-L_REST_UC_0" class="edge-thickness-normal edge-pattern-solid edge-thickness-normal edge-pattern-solid flowchart-link" style=";" data-edge="true" data-et="edge" data-id="L_REST_UC_0" data-points="W3sieCI6MTE4NC43MTg3NSwieSI6MzM1fSx7IngiOjExODQuNzE4NzUsInkiOjM3Mn0seyJ4IjoxMTg0LjcxODc1LCJ5Ijo0MDl9LHsieCI6MTE4NC43MTg3NSwieSI6NDU0LjI1fV0=" data-look="classic" marker-end="url(#my-svg_flowchart-v2-pointEnd)"/><path d="M1184.719,508.25L1184.719,515.792C1184.719,523.333,1184.719,538.417,1184.719,550.125C1184.719,561.833,1184.719,570.167,1184.719,583C1184.719,595.833,1184.719,613.167,1184.719,630.5C1184.719,647.833,1184.719,665.167,1184.719,680C1184.719,694.833,1184.719,707.167,1184.719,719.5C1184.719,731.833,1184.719,744.167,1184.719,759C1184.719,773.833,1184.719,791.167,1184.719,808.5C1184.719,825.833,1184.719,843.167,1184.719,858C1184.719,872.833,1184.719,885.167,1184.719,897.5C1184.719,909.833,1184.719,922.167,1208.815,936.024C1232.912,949.881,1281.105,965.262,1305.202,972.952L1329.299,980.642" id="my-svg-L_UC_OutboxDB_0" class="edge-thickness-normal edge-pattern-solid edge-thickness-normal edge-pattern-solid flowchart-link" style=";" data-edge="true" data-et="edge" data-id="L_UC_OutboxDB_0" data-points="W3sieCI6MTE4NC43MTg3NSwieSI6NTA4LjI1fSx7IngiOjExODQuNzE4NzUsInkiOjU1My41fSx7IngiOjExODQuNzE4NzUsInkiOjU3OC41fSx7IngiOjExODQuNzE4NzUsInkiOjYzMC41fSx7IngiOjExODQuNzE4NzUsInkiOjY4Mi41fSx7IngiOjExODQuNzE4NzUsInkiOjcxOS41fSx7IngiOjExODQuNzE4NzUsInkiOjc1Ni41fSx7IngiOjExODQuNzE4NzUsInkiOjgwOC41fSx7IngiOjExODQuNzE4NzUsInkiOjg2MC41fSx7IngiOjExODQuNzE4NzUsInkiOjg5Ny41fSx7IngiOjExODQuNzE4NzUsInkiOjkzNC41fSx7IngiOjEzMzMuMTA5Mzc1LCJ5Ijo5ODEuODU4NTExODU3NDAyNH1d" data-look="classic" marker-end="url(#my-svg_flowchart-v2-pointEnd)"/><path d="M1394.242,335L1394.242,341.167C1394.242,347.333,1394.242,359.667,1394.242,372C1394.242,384.333,1394.242,396.667,1394.242,414.875C1394.242,433.083,1394.242,457.167,1394.242,481.25C1394.242,505.333,1394.242,529.417,1394.242,545.625C1394.242,561.833,1394.242,570.167,1394.242,583C1394.242,595.833,1394.242,613.167,1394.242,630.5C1394.242,647.833,1394.242,665.167,1394.242,680C1394.242,694.833,1394.242,707.167,1394.242,719.5C1394.242,731.833,1394.242,744.167,1394.242,759C1394.242,773.833,1394.242,791.167,1394.242,808.5C1394.242,825.833,1394.242,843.167,1394.242,858C1394.242,872.833,1394.242,885.167,1394.242,897.5C1394.242,909.833,1394.242,922.167,1393.763,932.28C1393.284,942.393,1392.325,950.286,1391.846,954.233L1391.367,958.179" id="my-svg-L_Relay_OutboxDB_0" class="edge-thickness-normal edge-pattern-solid edge-thickness-normal edge-pattern-solid flowchart-link" style=";" data-edge="true" data-et="edge" data-id="L_Relay_OutboxDB_0" data-points="W3sieCI6MTM5NC4yNDIxODc1LCJ5IjozMzV9LHsieCI6MTM5NC4yNDIxODc1LCJ5IjozNzJ9LHsieCI6MTM5NC4yNDIxODc1LCJ5Ijo0MDl9LHsieCI6MTM5NC4yNDIxODc1LCJ5Ijo0ODEuMjV9LHsieCI6MTM5NC4yNDIxODc1LCJ5Ijo1NTMuNX0seyJ4IjoxMzk0LjI0MjE4NzUsInkiOjU3OC41fSx7IngiOjEzOTQuMjQyMTg3NSwieSI6NjMwLjV9LHsieCI6MTM5NC4yNDIxODc1LCJ5Ijo2ODIuNX0seyJ4IjoxMzk0LjI0MjE4NzUsInkiOjcxOS41fSx7IngiOjEzOTQuMjQyMTg3NSwieSI6NzU2LjV9LHsieCI6MTM5NC4yNDIxODc1LCJ5Ijo4MDguNX0seyJ4IjoxMzk0LjI0MjE4NzUsInkiOjg2MC41fSx7IngiOjEzOTQuMjQyMTg3NSwieSI6ODk3LjV9LHsieCI6MTM5NC4yNDIxODc1LCJ5Ijo5MzQuNX0seyJ4IjoxMzkwLjg4NDYwMDc3NDMwMzQsInkiOjk2Mi4xNDk5MzU5NDY4MzI0fV0=" data-look="classic" marker-end="url(#my-svg_flowchart-v2-pointEnd)"/><path d="M1344.301,335L1332.895,341.167C1321.488,347.333,1298.676,359.667,1287.27,372C1275.863,384.333,1275.863,396.667,1186.989,413.826C1098.114,430.986,920.365,452.972,831.491,463.966L742.616,474.959" id="my-svg-L_Relay_Bus_0" class="edge-thickness-normal edge-pattern-solid edge-thickness-normal edge-pattern-solid flowchart-link" style=";" data-edge="true" data-et="edge" data-id="L_Relay_Bus_0" data-points="W3sieCI6MTM0NC4zMDEwODY0MjU3ODEyLCJ5IjozMzV9LHsieCI6MTI3NS44NjMyODEyNSwieSI6MzcyfSx7IngiOjEyNzUuODYzMjgxMjUsInkiOjQwOX0seyJ4Ijo3MzguNjQ2NTQyNjY2ODI3LCJ5Ijo0NzUuNDQ5NzI4NDY1MDQwMDR9XQ==" data-look="classic" marker-end="url(#my-svg_flowchart-v2-pointEnd)"/><path d="M735.717,498.564L758.966,507.72C782.215,516.876,828.713,535.188,851.962,548.511C875.211,561.833,875.211,570.167,875.211,583C875.211,595.833,875.211,613.167,875.211,630.5C875.211,647.833,875.211,665.167,875.211,680C875.211,694.833,875.211,707.167,875.211,719.5C875.211,731.833,875.211,744.167,875.211,753.833C875.211,763.5,875.211,770.5,875.211,774L875.211,777.5" id="my-svg-L_Bus_A_0" class="edge-thickness-normal edge-pattern-solid edge-thickness-normal edge-pattern-solid flowchart-link" style=";" data-edge="true" data-et="edge" data-id="L_Bus_A_0" data-points="W3sieCI6NzM1LjcxNzQxNDc5Mzc5MjIsInkiOjQ5OC41NjM5MzcwNjAwNjU2fSx7IngiOjg3NS4yMTA5Mzc1LCJ5Ijo1NTMuNX0seyJ4Ijo4NzUuMjEwOTM3NSwieSI6NTc4LjV9LHsieCI6ODc1LjIxMDkzNzUsInkiOjYzMC41fSx7IngiOjg3NS4yMTA5Mzc1LCJ5Ijo2ODIuNX0seyJ4Ijo4NzUuMjEwOTM3NSwieSI6NzE5LjV9LHsieCI6ODc1LjIxMDkzNzUsInkiOjc1Ni41fSx7IngiOjg3NS4yMTA5Mzc1LCJ5Ijo3ODEuNX1d" data-look="classic" marker-end="url(#my-svg_flowchart-v2-pointEnd)"/><path d="M659.14,515.439L653.089,521.782C647.037,528.126,634.935,540.813,628.883,551.323C622.832,561.833,622.832,570.167,622.832,583C622.832,595.833,622.832,613.167,622.832,630.5C622.832,647.833,622.832,665.167,622.832,680C622.832,694.833,622.832,707.167,622.832,719.5C622.832,731.833,622.832,744.167,622.832,753.833C622.832,763.5,622.832,770.5,622.832,774L622.832,777.5" id="my-svg-L_Bus_L_0" class="edge-thickness-normal edge-pattern-solid edge-thickness-normal edge-pattern-solid flowchart-link" style=";" data-edge="true" data-et="edge" data-id="L_Bus_L_0" data-points="W3sieCI6NjU5LjEzOTgzMTc0NDMwMzEsInkiOjUxNS40Mzg5NTUwMDIxMTgxfSx7IngiOjYyMi44MzIwMzEyNSwieSI6NTUzLjV9LHsieCI6NjIyLjgzMjAzMTI1LCJ5Ijo1NzguNX0seyJ4Ijo2MjIuODMyMDMxMjUsInkiOjYzMC41fSx7IngiOjYyMi44MzIwMzEyNSwieSI6NjgyLjV9LHsieCI6NjIyLjgzMjAzMTI1LCJ5Ijo3MTkuNX0seyJ4Ijo2MjIuODMyMDMxMjUsInkiOjc1Ni41fSx7IngiOjYyMi44MzIwMzEyNSwieSI6NzgxLjV9XQ==" data-look="classic" marker-end="url(#my-svg_flowchart-v2-pointEnd)"/><path d="M645.861,492.494L604.36,502.661C562.859,512.829,479.857,533.165,438.356,547.499C396.855,561.833,396.855,570.167,396.855,577.833C396.855,585.5,396.855,592.5,396.855,596L396.855,599.5" id="my-svg-L_Bus_BQ_0" class="edge-thickness-normal edge-pattern-solid edge-thickness-normal edge-pattern-solid flowchart-link" style=";" data-edge="true" data-et="edge" data-id="L_Bus_BQ_0" data-points="W3sieCI6NjQ1Ljg2MTE4NjIyMzA2OTQsInkiOjQ5Mi40OTM2OTgxNjk2MzA4fSx7IngiOjM5Ni44NTU0Njg3NSwieSI6NTUzLjV9LHsieCI6Mzk2Ljg1NTQ2ODc1LCJ5Ijo1NzguNX0seyJ4IjozOTYuODU1NDY4NzUsInkiOjYwMy41fV0=" data-look="classic" marker-end="url(#my-svg_flowchart-v2-pointEnd)"/><path d="M396.855,657.5L396.855,661.667C396.855,665.833,396.855,674.167,396.855,684.5C396.855,694.833,396.855,707.167,396.855,719.5C396.855,731.833,396.855,744.167,396.855,753.833C396.855,763.5,396.855,770.5,396.855,774L396.855,777.5" id="my-svg-L_BQ_D_0" class="edge-thickness-normal edge-pattern-solid edge-thickness-normal edge-pattern-solid flowchart-link" style=";" data-edge="true" data-et="edge" data-id="L_BQ_D_0" data-points="W3sieCI6Mzk2Ljg1NTQ2ODc1LCJ5Ijo2NTcuNX0seyJ4IjozOTYuODU1NDY4NzUsInkiOjY4Mi41fSx7IngiOjM5Ni44NTU0Njg3NSwieSI6NzE5LjV9LHsieCI6Mzk2Ljg1NTQ2ODc1LCJ5Ijo3NTYuNX0seyJ4IjozOTYuODU1NDY4NzUsInkiOjc4MS41fV0=" data-look="classic" marker-end="url(#my-svg_flowchart-v2-pointEnd)"/><path d="M644.94,487.653L564.704,498.628C484.469,509.602,323.998,531.551,243.763,546.692C163.527,561.833,163.527,570.167,163.527,583C163.527,595.833,163.527,613.167,163.527,630.5C163.527,647.833,163.527,665.167,163.527,680C163.527,694.833,163.527,707.167,163.527,719.5C163.527,731.833,163.527,744.167,163.527,753.833C163.527,763.5,163.527,770.5,163.527,774L163.527,777.5" id="my-svg-L_Bus_R_0" class="edge-thickness-normal edge-pattern-solid edge-thickness-normal edge-pattern-solid flowchart-link" style=";" data-edge="true" data-et="edge" data-id="L_Bus_R_0" data-points="W3sieCI6NjQ0LjkzOTc4NDI4OTE1ODMsInkiOjQ4Ny42NTMxNjIxMTIyMjQ5NX0seyJ4IjoxNjMuNTI3MzQzNzUsInkiOjU1My41fSx7IngiOjE2My41MjczNDM3NSwieSI6NTc4LjV9LHsieCI6MTYzLjUyNzM0Mzc1LCJ5Ijo2MzAuNX0seyJ4IjoxNjMuNTI3MzQzNzUsInkiOjY4Mi41fSx7IngiOjE2My41MjczNDM3NSwieSI6NzE5LjV9LHsieCI6MTYzLjUyNzM0Mzc1LCJ5Ijo3NTYuNX0seyJ4IjoxNjMuNTI3MzQzNzUsInkiOjc4MS41fV0=" data-look="classic" marker-end="url(#my-svg_flowchart-v2-pointEnd)"/><path d="M900.049,835.5L903.882,839.667C907.715,843.833,915.381,852.167,919.214,862.5C923.047,872.833,923.047,885.167,923.047,897.5C923.047,909.833,923.047,922.167,900.589,935.516C878.132,948.865,833.217,963.229,810.76,970.411L788.302,977.594" id="my-svg-L_A_ProcDB_0" class="edge-thickness-normal edge-pattern-solid edge-thickness-normal edge-pattern-solid flowchart-link" style=";" data-edge="true" data-et="edge" data-id="L_A_ProcDB_0" data-points="W3sieCI6OTAwLjA0ODgyODEyNSwieSI6ODM1LjV9LHsieCI6OTIzLjA0Njg3NSwieSI6ODYwLjV9LHsieCI6OTIzLjA0Njg3NSwieSI6ODk3LjV9LHsieCI6OTIzLjA0Njg3NSwieSI6OTM0LjV9LHsieCI6Nzg0LjQ5MjE4NzUsInkiOjk3OC44MTIwODExNTM1NTQ4fV0=" data-look="classic" marker-end="url(#my-svg_flowchart-v2-pointEnd)"/><path d="M846.448,835.5L842.01,839.667C837.571,843.833,828.694,852.167,824.255,862.5C819.816,872.833,819.816,885.167,819.816,897.5C819.816,909.833,819.816,922.167,835.012,935.931C850.208,949.695,880.6,964.889,895.797,972.486L910.993,980.084" id="my-svg-L_A_PenDB_0" class="edge-thickness-normal edge-pattern-solid edge-thickness-normal edge-pattern-solid flowchart-link" style=";" data-edge="true" data-et="edge" data-id="L_A_PenDB_0" data-points="W3sieCI6ODQ2LjQ0ODM5MjQyNzg4NDYsInkiOjgzNS41fSx7IngiOjgxOS44MTY0MDYyNSwieSI6ODYwLjV9LHsieCI6ODE5LjgxNjQwNjI1LCJ5Ijo4OTcuNX0seyJ4Ijo4MTkuODE2NDA2MjUsInkiOjkzNC41fSx7IngiOjkxNC41NzAzMTI1LCJ5Ijo5ODEuODcyMjU5MjMzMzUzOH1d" data-look="classic" marker-end="url(#my-svg_flowchart-v2-pointEnd)"/><path d="M662.184,835.5L668.257,839.667C674.33,843.833,686.475,852.167,692.548,862.5C698.621,872.833,698.621,885.167,698.621,897.5C698.621,909.833,698.621,922.167,699.962,932.104C701.302,942.041,703.983,949.583,705.324,953.354L706.664,957.124" id="my-svg-L_L_ProcDB_0" class="edge-thickness-normal edge-pattern-solid edge-thickness-normal edge-pattern-solid flowchart-link" style=";" data-edge="true" data-et="edge" data-id="L_L_ProcDB_0" data-points="W3sieCI6NjYyLjE4NDA0NDQ3MTE1MzgsInkiOjgzNS41fSx7IngiOjY5OC42MjEwOTM3NSwieSI6ODYwLjV9LHsieCI6Njk4LjYyMTA5Mzc1LCJ5Ijo4OTcuNX0seyJ4Ijo2OTguNjIxMDkzNzUsInkiOjkzNC41fSx7IngiOjcwOC4wMDQxNzMyNDIwNzA0LCJ5Ijo5NjAuODkzMzEwNTAyMjY5Mn1d" data-look="classic" marker-end="url(#my-svg_flowchart-v2-pointEnd)"/><path d="M589.003,835.5L583.782,839.667C578.562,843.833,568.121,852.167,562.9,862.5C557.68,872.833,557.68,885.167,557.68,897.5C557.68,909.833,557.68,922.167,553.683,933.442C549.687,944.718,541.694,954.936,537.697,960.045L533.701,965.154" id="my-svg-L_L_AudDB_0" class="edge-thickness-normal edge-pattern-solid edge-thickness-normal edge-pattern-solid flowchart-link" style=";" data-edge="true" data-et="edge" data-id="L_L_AudDB_0" data-points="W3sieCI6NTg5LjAwMjkyOTY4NzUsInkiOjgzNS41fSx7IngiOjU1Ny42Nzk2ODc1LCJ5Ijo4NjAuNX0seyJ4Ijo1NTcuNjc5Njg3NSwieSI6ODk3LjV9LHsieCI6NTU3LjY3OTY4NzUsInkiOjkzNC41fSx7IngiOjUzMS4yMzYzODkyMjQ1Mzk1LCJ5Ijo5NjguMzA0MzI5MDE1NTg1Mn1d" data-look="classic" marker-end="url(#my-svg_flowchart-v2-pointEnd)"/><path d="M430.685,835.5L435.905,839.667C441.126,843.833,451.567,852.167,456.787,862.5C462.008,872.833,462.008,885.167,462.008,897.5C462.008,909.833,462.008,922.167,494.202,936.311C526.396,950.456,590.784,966.411,622.978,974.389L655.172,982.367" id="my-svg-L_D_ProcDB_0" class="edge-thickness-normal edge-pattern-solid edge-thickness-normal edge-pattern-solid flowchart-link" style=";" data-edge="true" data-et="edge" data-id="L_D_ProcDB_0" data-points="W3sieCI6NDMwLjY4NDU3MDMxMjUsInkiOjgzNS41fSx7IngiOjQ2Mi4wMDc4MTI1LCJ5Ijo4NjAuNX0seyJ4Ijo0NjIuMDA3ODEyNSwieSI6ODk3LjV9LHsieCI6NDYyLjAwNzgxMjUsInkiOjkzNC41fSx7IngiOjY1OS4wNTQ2ODc1LCJ5Ijo5ODMuMzI4NzExMDIwMTAzOX1d" data-look="classic" marker-end="url(#my-svg_flowchart-v2-pointEnd)"/><path d="M362.284,835.5L356.949,839.667C351.614,843.833,340.944,852.167,335.609,862.5C330.273,872.833,330.273,885.167,330.273,897.5C330.273,909.833,330.273,922.167,329.062,931.937C327.85,941.708,325.427,948.916,324.216,952.519L323.004,956.123" id="my-svg-L_D_DashDB_0" class="edge-thickness-normal edge-pattern-solid edge-thickness-normal edge-pattern-solid flowchart-link" style=";" data-edge="true" data-et="edge" data-id="L_D_DashDB_0" data-points="W3sieCI6MzYyLjI4NDAyOTQ0NzExNTM2LCJ5Ijo4MzUuNX0seyJ4IjozMzAuMjczNDM3NSwieSI6ODYwLjV9LHsieCI6MzMwLjI3MzQzNzUsInkiOjg5Ny41fSx7IngiOjMzMC4yNzM0Mzc1LCJ5Ijo5MzQuNX0seyJ4IjozMjEuNzI5Mjg4NDgzMDE1MDcsInkiOjk1OS45MTQ3MzU3NDQzMDUyfV0=" data-look="classic" marker-end="url(#my-svg_flowchart-v2-pointEnd)"/><path d="M198.099,835.5L203.434,839.667C208.769,843.833,219.439,852.167,224.774,862.5C230.109,872.833,230.109,885.167,230.109,897.5C230.109,909.833,230.109,922.167,300.939,937.607C371.769,953.047,513.429,971.593,584.259,980.867L655.089,990.14" id="my-svg-L_R_ProcDB_0" class="edge-thickness-normal edge-pattern-solid edge-thickness-normal edge-pattern-solid flowchart-link" style=";" data-edge="true" data-et="edge" data-id="L_R_ProcDB_0" data-points="W3sieCI6MTk4LjA5ODc4MzA1Mjg4NDYsInkiOjgzNS41fSx7IngiOjIzMC4xMDkzNzUsInkiOjg2MC41fSx7IngiOjIzMC4xMDkzNzUsInkiOjg5Ny41fSx7IngiOjIzMC4xMDkzNzUsInkiOjkzNC41fSx7IngiOjY1OS4wNTQ2ODc1LCJ5Ijo5OTAuNjU5MTkxODAyMjk5MX1d" data-look="classic" marker-end="url(#my-svg_flowchart-v2-pointEnd)"/><path d="M137.523,835.5L133.51,839.667C129.497,843.833,121.471,852.167,117.458,862.5C113.445,872.833,113.445,885.167,113.445,897.5C113.445,909.833,113.445,922.167,113.445,931.833C113.445,941.5,113.445,948.5,113.445,952L113.445,955.5" id="my-svg-L_R_RepDB_0" class="edge-thickness-normal edge-pattern-solid edge-thickness-normal edge-pattern-solid flowchart-link" style=";" data-edge="true" data-et="edge" data-id="L_R_RepDB_0" data-points="W3sieCI6MTM3LjUyMzIxMjEzOTQyMzA3LCJ5Ijo4MzUuNX0seyJ4IjoxMTMuNDQ1MzEyNSwieSI6ODYwLjV9LHsieCI6MTEzLjQ0NTMxMjUsInkiOjg5Ny41fSx7IngiOjExMy40NDUzMTI1LCJ5Ijo5MzQuNX0seyJ4IjoxMTMuNDQ1MzEyNSwieSI6OTU5LjV9XQ==" data-look="classic" marker-end="url(#my-svg_flowchart-v2-pointEnd)"/><path d="M1005.227,157L1005.227,161.167C1005.227,165.333,1005.227,173.667,1005.227,184C1005.227,194.333,1005.227,206.667,1005.227,219C1005.227,231.333,1005.227,243.667,1020.397,254.228C1035.568,264.79,1065.91,273.58,1081.081,277.975L1096.252,282.371" id="my-svg-L_UI_REST_0" class="edge-thickness-normal edge-pattern-dotted edge-thickness-normal edge-pattern-solid flowchart-link" style=";" data-edge="true" data-et="edge" data-id="L_UI_REST_0" data-points="W3sieCI6MTAwNS4yMjY1NjI1LCJ5IjoxNTd9LHsieCI6MTAwNS4yMjY1NjI1LCJ5IjoxODJ9LHsieCI6MTAwNS4yMjY1NjI1LCJ5IjoyMTl9LHsieCI6MTAwNS4yMjY1NjI1LCJ5IjoyNTZ9LHsieCI6MTEwMC4wOTM3NSwieSI6MjgzLjQ4MzYxMjYyMjQxNTY1fV0=" data-look="classic" marker-end="url(#my-svg_flowchart-v2-pointEnd)"/></g><g class="edgeLabels"><g class="edgeLabel" transform="translate(1283.8359375, 219)"><g class="label" data-id="L_C_REST_0" transform="translate(-39.59375, -12)"><foreignObject width="79.1875" height="24"><div xmlns="http://www.w3.org/1999/xhtml" class="labelBkg" style="display: table-cell; white-space: nowrap; line-height: 1.5; max-width: 200px; text-align: center;"><span class="edgeLabel"><p>HTTP POST</p></span></div></foreignObject></g></g><g class="edgeLabel"><g class="label" data-id="L_REST_UC_0" transform="translate(0, 0)"><foreignObject width="0" height="0"><div xmlns="http://www.w3.org/1999/xhtml" class="labelBkg" style="display: table-cell; white-space: nowrap; line-height: 1.5; max-width: 200px; text-align: center;"><span class="edgeLabel"></span></div></foreignObject></g></g><g class="edgeLabel" transform="translate(1184.71875, 719.5)"><g class="label" data-id="L_UC_OutboxDB_0" transform="translate(-38.515625, -12)"><foreignObject width="77.03125" height="24"><div xmlns="http://www.w3.org/1999/xhtml" class="labelBkg" style="display: table-cell; white-space: nowrap; line-height: 1.5; max-width: 200px; text-align: center;"><span class="edgeLabel"><p>atomic txn</p></span></div></foreignObject></g></g><g class="edgeLabel" transform="translate(1394.2421875, 630.5)"><g class="label" data-id="L_Relay_OutboxDB_0" transform="translate(-50.6171875, -12)"><foreignObject width="101.234375" height="24"><div xmlns="http://www.w3.org/1999/xhtml" class="labelBkg" style="display: table-cell; white-space: nowrap; line-height: 1.5; max-width: 200px; text-align: center;"><span class="edgeLabel"><p>polls PENDING</p></span></div></foreignObject></g></g><g class="edgeLabel" transform="translate(1275.86328125, 372)"><g class="label" data-id="L_Relay_Bus_0" transform="translate(-33.140625, -12)"><foreignObject width="66.28125" height="24"><div xmlns="http://www.w3.org/1999/xhtml" class="labelBkg" style="display: table-cell; white-space: nowrap; line-height: 1.5; max-width: 200px; text-align: center;"><span class="edgeLabel"><p>publishes</p></span></div></foreignObject></g></g><g class="edgeLabel"><g class="label" data-id="L_Bus_A_0" transform="translate(0, 0)"><foreignObject width="0" height="0"><div xmlns="http://www.w3.org/1999/xhtml" class="labelBkg" style="display: table-cell; white-space: nowrap; line-height: 1.5; max-width: 200px; text-align: center;"><span class="edgeLabel"></span></div></foreignObject></g></g><g class="edgeLabel"><g class="label" data-id="L_Bus_L_0" transform="translate(0, 0)"><foreignObject width="0" height="0"><div xmlns="http://www.w3.org/1999/xhtml" class="labelBkg" style="display: table-cell; white-space: nowrap; line-height: 1.5; max-width: 200px; text-align: center;"><span class="edgeLabel"></span></div></foreignObject></g></g><g class="edgeLabel"><g class="label" data-id="L_Bus_BQ_0" transform="translate(0, 0)"><foreignObject width="0" height="0"><div xmlns="http://www.w3.org/1999/xhtml" class="labelBkg" style="display: table-cell; white-space: nowrap; line-height: 1.5; max-width: 200px; text-align: center;"><span class="edgeLabel"></span></div></foreignObject></g></g><g class="edgeLabel"><g class="label" data-id="L_BQ_D_0" transform="translate(0, 0)"><foreignObject width="0" height="0"><div xmlns="http://www.w3.org/1999/xhtml" class="labelBkg" style="display: table-cell; white-space: nowrap; line-height: 1.5; max-width: 200px; text-align: center;"><span class="edgeLabel"></span></div></foreignObject></g></g><g class="edgeLabel"><g class="label" data-id="L_Bus_R_0" transform="translate(0, 0)"><foreignObject width="0" height="0"><div xmlns="http://www.w3.org/1999/xhtml" class="labelBkg" style="display: table-cell; white-space: nowrap; line-height: 1.5; max-width: 200px; text-align: center;"><span class="edgeLabel"></span></div></foreignObject></g></g><g class="edgeLabel" transform="translate(923.046875, 897.5)"><g class="label" data-id="L_A_ProcDB_0" transform="translate(-51.8984375, -12)"><foreignObject width="103.796875" height="24"><div xmlns="http://www.w3.org/1999/xhtml" class="labelBkg" style="display: table-cell; white-space: nowrap; line-height: 1.5; max-width: 200px; text-align: center;"><span class="edgeLabel"><p>checks/inserts</p></span></div></foreignObject></g></g><g class="edgeLabel" transform="translate(819.81640625, 897.5)"><g class="label" data-id="L_A_PenDB_0" transform="translate(-23.7734375, -12)"><foreignObject width="47.546875" height="24"><div xmlns="http://www.w3.org/1999/xhtml" class="labelBkg" style="display: table-cell; white-space: nowrap; line-height: 1.5; max-width: 200px; text-align: center;"><span class="edgeLabel"><p>inserts</p></span></div></foreignObject></g></g><g class="edgeLabel" transform="translate(698.62109375, 897.5)"><g class="label" data-id="L_L_ProcDB_0" transform="translate(-51.8984375, -12)"><foreignObject width="103.796875" height="24"><div xmlns="http://www.w3.org/1999/xhtml" class="labelBkg" style="display: table-cell; white-space: nowrap; line-height: 1.5; max-width: 200px; text-align: center;"><span class="edgeLabel"><p>checks/inserts</p></span></div></foreignObject></g></g><g class="edgeLabel" transform="translate(557.6796875, 897.5)"><g class="label" data-id="L_L_AudDB_0" transform="translate(-23.7734375, -12)"><foreignObject width="47.546875" height="24"><div xmlns="http://www.w3.org/1999/xhtml" class="labelBkg" style="display: table-cell; white-space: nowrap; line-height: 1.5; max-width: 200px; text-align: center;"><span class="edgeLabel"><p>inserts</p></span></div></foreignObject></g></g><g class="edgeLabel" transform="translate(462.0078125, 897.5)"><g class="label" data-id="L_D_ProcDB_0" transform="translate(-51.8984375, -12)"><foreignObject width="103.796875" height="24"><div xmlns="http://www.w3.org/1999/xhtml" class="labelBkg" style="display: table-cell; white-space: nowrap; line-height: 1.5; max-width: 200px; text-align: center;"><span class="edgeLabel"><p>checks/inserts</p></span></div></foreignObject></g></g><g class="edgeLabel" transform="translate(330.2734375, 897.5)"><g class="label" data-id="L_D_DashDB_0" transform="translate(-28.265625, -12)"><foreignObject width="56.53125" height="24"><div xmlns="http://www.w3.org/1999/xhtml" class="labelBkg" style="display: table-cell; white-space: nowrap; line-height: 1.5; max-width: 200px; text-align: center;"><span class="edgeLabel"><p>updates</p></span></div></foreignObject></g></g><g class="edgeLabel" transform="translate(230.109375, 897.5)"><g class="label" data-id="L_R_ProcDB_0" transform="translate(-51.8984375, -12)"><foreignObject width="103.796875" height="24"><div xmlns="http://www.w3.org/1999/xhtml" class="labelBkg" style="display: table-cell; white-space: nowrap; line-height: 1.5; max-width: 200px; text-align: center;"><span class="edgeLabel"><p>checks/inserts</p></span></div></foreignObject></g></g><g class="edgeLabel" transform="translate(113.4453125, 897.5)"><g class="label" data-id="L_R_RepDB_0" transform="translate(-28.265625, -12)"><foreignObject width="56.53125" height="24"><div xmlns="http://www.w3.org/1999/xhtml" class="labelBkg" style="display: table-cell; white-space: nowrap; line-height: 1.5; max-width: 200px; text-align: center;"><span class="edgeLabel"><p>updates</p></span></div></foreignObject></g></g><g class="edgeLabel" transform="translate(1005.2265625, 219)"><g class="label" data-id="L_UI_REST_0" transform="translate(-35.59375, -12)"><foreignObject width="71.1875" height="24"><div xmlns="http://www.w3.org/1999/xhtml" class="labelBkg" style="display: table-cell; white-space: nowrap; line-height: 1.5; max-width: 200px; text-align: center;"><span class="edgeLabel"><p>HTTP GET</p></span></div></foreignObject></g></g></g><g class="nodes"><g class="root" transform="translate(874.8046875, 25)"><g class="clusters"><g class="cluster" id="my-svg-UI" data-look="classic"><rect style="" x="8" y="8" width="244.84375" height="124"/><g class="cluster-label" transform="translate(47.6875, 8)"><foreignObject width="165.46875" height="24"><div xmlns="http://www.w3.org/1999/xhtml" style="display: table-cell; white-space: nowrap; line-height: 1.5;"><span class="nodeLabel"><p>Frontend Layer (React)</p></span></div></foreignObject></g></g></g><g class="edgePaths"/><g class="edgeLabels"/><g class="nodes"><g class="node default" id="my-svg-flowchart-Web-16" data-look="classic" transform="translate(130.421875, 70)"><rect class="basic label-container" style="" x="-84.921875" y="-27" width="169.84375" height="54"/><g class="label" style="" transform="translate(-54.921875, -12)"><rect/><foreignObject width="109.84375" height="24"><div xmlns="http://www.w3.org/1999/xhtml" style="display: table-cell; white-space: nowrap; line-height: 1.5; max-width: 200px; text-align: center;"><span class="nodeLabel"><p>Web Dashboard</p></span></div></foreignObject></g></g></g></g><g class="node default" id="my-svg-flowchart-C-0" data-look="classic" transform="translate(1283.8359375, 95)"><rect class="basic label-container" style="" x="-86.1875" y="-27" width="172.375" height="54"/><g class="label" style="" transform="translate(-56.1875, -12)"><rect/><foreignObject width="112.375" height="24"><div xmlns="http://www.w3.org/1999/xhtml" style="display: table-cell; white-space: nowrap; line-height: 1.5; max-width: 200px; text-align: center;"><span class="nodeLabel"><p>Traffic Cameras</p></span></div></foreignObject></g></g><g class="node default" id="my-svg-flowchart-REST-1" data-look="classic" transform="translate(1184.71875, 308)"><rect class="basic label-container" style="" x="-84.625" y="-27" width="169.25" height="54"/><g class="label" style="" transform="translate(-54.625, -12)"><rect/><foreignObject width="109.25" height="24"><div xmlns="http://www.w3.org/1999/xhtml" style="display: table-cell; white-space: nowrap; line-height: 1.5; max-width: 200px; text-align: center;"><span class="nodeLabel"><p>REST Endpoints</p></span></div></foreignObject></g></g><g class="node default" id="my-svg-flowchart-UC-2" data-look="classic" transform="translate(1184.71875, 481.25)"><rect class="basic label-container" style="" x="-105.03125" y="-27" width="210.0625" height="54"/><g class="label" style="" transform="translate(-75.03125, -12)"><rect/><foreignObject width="150.0625" height="24"><div xmlns="http://www.w3.org/1999/xhtml" style="display: table-cell; white-space: nowrap; line-height: 1.5; max-width: 200px; text-align: center;"><span class="nodeLabel"><p>PublishEventUseCase</p></span></div></foreignObject></g></g><g class="node default" id="my-svg-flowchart-Relay-3" data-look="classic" transform="translate(1394.2421875, 308)"><rect class="basic label-container" style="" x="-74.8984375" y="-27" width="149.796875" height="54"/><g class="label" style="" transform="translate(-44.8984375, -12)"><rect/><foreignObject width="89.796875" height="24"><div xmlns="http://www.w3.org/1999/xhtml" style="display: table-cell; white-space: nowrap; line-height: 1.5; max-width: 200px; text-align: center;"><span class="nodeLabel"><p>OutboxRelay</p></span></div></foreignObject></g></g><g class="node default" id="my-svg-flowchart-Bus-4" data-look="classic" transform="translate(691.75390625, 481.25)"><g class="basic label-container" style=""><circle class="outer-circle" style="" r="47.25" cx="0" cy="0"/><circle class="inner-circle" style="" r="42.25" cx="0" cy="0"/></g><g class="label" style="" transform="translate(-32.25, -12)"><rect/><foreignObject width="64.5" height="24"><div xmlns="http://www.w3.org/1999/xhtml" style="display: table-cell; white-space: nowrap; line-height: 1.5; max-width: 200px; text-align: center;"><span class="nodeLabel"><p>EventBus</p></span></div></foreignObject></g></g><g class="node default" id="my-svg-flowchart-BQ-5" data-look="classic" transform="translate(396.85546875, 630.5)"><rect class="basic label-container" style="" x="-103.828125" y="-27" width="207.65625" height="54"/><g class="label" style="" transform="translate(-73.828125, -12)"><rect/><foreignObject width="147.65625" height="24"><div xmlns="http://www.w3.org/1999/xhtml" style="display: table-cell; white-space: nowrap; line-height: 1.5; max-width: 200px; text-align: center;"><span class="nodeLabel"><p>BoundedEventQueue</p></span></div></foreignObject></g></g><g class="node default" id="my-svg-flowchart-A-6" data-look="classic" transform="translate(875.2109375, 808.5)"><rect class="basic label-container" style="" x="-73.5703125" y="-27" width="147.140625" height="54"/><g class="label" style="" transform="translate(-43.5703125, -12)"><rect/><foreignObject width="87.140625" height="24"><div xmlns="http://www.w3.org/1999/xhtml" style="display: table-cell; white-space: nowrap; line-height: 1.5; max-width: 200px; text-align: center;"><span class="nodeLabel"><p>AlertService</p></span></div></foreignObject></g></g><g class="node default" id="my-svg-flowchart-L-7" data-look="classic" transform="translate(622.83203125, 808.5)"><rect class="basic label-container" style="" x="-82.890625" y="-27" width="165.78125" height="54"/><g class="label" style="" transform="translate(-52.890625, -12)"><rect/><foreignObject width="105.78125" height="24"><div xmlns="http://www.w3.org/1999/xhtml" style="display: table-cell; white-space: nowrap; line-height: 1.5; max-width: 200px; text-align: center;"><span class="nodeLabel"><p>LoggingService</p></span></div></foreignObject></g></g><g class="node default" id="my-svg-flowchart-D-8" data-look="classic" transform="translate(396.85546875, 808.5)"><rect class="basic label-container" style="" x="-93.0859375" y="-27" width="186.171875" height="54"/><g class="label" style="" transform="translate(-63.0859375, -12)"><rect/><foreignObject width="126.171875" height="24"><div xmlns="http://www.w3.org/1999/xhtml" style="display: table-cell; white-space: nowrap; line-height: 1.5; max-width: 200px; text-align: center;"><span class="nodeLabel"><p>DashboardService</p></span></div></foreignObject></g></g><g class="node default" id="my-svg-flowchart-R-9" data-look="classic" transform="translate(163.52734375, 808.5)"><rect class="basic label-container" style="" x="-90.2421875" y="-27" width="180.484375" height="54"/><g class="label" style="" transform="translate(-60.2421875, -12)"><rect/><foreignObject width="120.484375" height="24"><div xmlns="http://www.w3.org/1999/xhtml" style="display: table-cell; white-space: nowrap; line-height: 1.5; max-width: 200px; text-align: center;"><span class="nodeLabel"><p>ReportingService</p></span></div></foreignObject></g></g><g class="node default" id="my-svg-flowchart-OutboxDB-10" data-look="classic" transform="translate(1386.4140625, 998.8705749511719)"><path d="M0,11.507454631316197 a53.3046875,11.507454631316197 0,0,0 106.609375,0 a53.3046875,11.507454631316197 0,0,0 -106.609375,0 l0,50.50745463131619 a53.3046875,11.507454631316197 0,0,0 106.609375,0 l0,-50.50745463131619" class="basic label-container outer-path" style="" transform="translate(-53.3046875, -36.76118194697429)"/><g class="label" style="" transform="translate(-45.8046875, -2)"><rect/><foreignObject width="91.609375" height="24"><div xmlns="http://www.w3.org/1999/xhtml" style="display: table-cell; white-space: nowrap; line-height: 1.5; max-width: 200px; text-align: center;"><span class="nodeLabel"><p>EventOutbox</p></span></div></foreignObject></g></g><g class="node default" id="my-svg-flowchart-ProcDB-11" data-look="classic" transform="translate(721.7734375, 998.8705749511719)"><path d="M0,12.521836785625156 a62.71875,12.521836785625156 0,0,0 125.4375,0 a62.71875,12.521836785625156 0,0,0 -125.4375,0 l0,51.521836785625155 a62.71875,12.521836785625156 0,0,0 125.4375,0 l0,-51.521836785625155" class="basic label-container outer-path" style="" transform="translate(-62.71875, -38.28275517843773)"/><g class="label" style="" transform="translate(-55.21875, -2)"><rect/><foreignObject width="110.4375" height="24"><div xmlns="http://www.w3.org/1999/xhtml" style="display: table-cell; white-space: nowrap; line-height: 1.5; max-width: 200px; text-align: center;"><span class="nodeLabel"><p>ProcessedEvent</p></span></div></foreignObject></g></g><g class="node default" id="my-svg-flowchart-PenDB-12" data-look="classic" transform="translate(948.5703125, 998.8705749511719)"><path d="M0,8.808290155440414 a34,8.808290155440414 0,0,0 68,0 a34,8.808290155440414 0,0,0 -68,0 l0,47.80829015544042 a34,8.808290155440414 0,0,0 68,0 l0,-47.80829015544042" class="basic label-container outer-path" style="" transform="translate(-34, -32.71243523316062)"/><g class="label" style="" transform="translate(-26.5, -2)"><rect/><foreignObject width="53" height="24"><div xmlns="http://www.w3.org/1999/xhtml" style="display: table-cell; white-space: nowrap; line-height: 1.5; max-width: 200px; text-align: center;"><span class="nodeLabel"><p>Penalty</p></span></div></foreignObject></g></g><g class="node default" id="my-svg-flowchart-AudDB-13" data-look="classic" transform="translate(501.859375, 998.8705749511719)"><path d="M0,9.584553722830275 a38.859375,9.584553722830275 0,0,0 77.71875,0 a38.859375,9.584553722830275 0,0,0 -77.71875,0 l0,48.58455372283028 a38.859375,9.584553722830275 0,0,0 77.71875,0 l0,-48.58455372283028" class="basic label-container outer-path" style="" transform="translate(-38.859375, -33.87683058424541)"/><g class="label" style="" transform="translate(-31.359375, -2)"><rect/><foreignObject width="62.71875" height="24"><div xmlns="http://www.w3.org/1999/xhtml" style="display: table-cell; white-space: nowrap; line-height: 1.5; max-width: 200px; text-align: center;"><span class="nodeLabel"><p>AuditLog</p></span></div></foreignObject></g></g><g class="node default" id="my-svg-flowchart-DashDB-14" data-look="classic" transform="translate(308.421875, 998.8705749511719)"><path d="M0,13.134084841293383 a69.1796875,13.134084841293383 0,0,0 138.359375,0 a69.1796875,13.134084841293383 0,0,0 -138.359375,0 l0,52.13408484129339 a69.1796875,13.134084841293383 0,0,0 138.359375,0 l0,-52.13408484129339" class="basic label-container outer-path" style="" transform="translate(-69.1796875, -39.20112726194007)"/><g class="label" style="" transform="translate(-61.6796875, -2)"><rect/><foreignObject width="123.359375" height="24"><div xmlns="http://www.w3.org/1999/xhtml" style="display: table-cell; white-space: nowrap; line-height: 1.5; max-width: 200px; text-align: center;"><span class="nodeLabel"><p>IntersectionState</p></span></div></foreignObject></g></g><g class="node default" id="my-svg-flowchart-RepDB-15" data-look="classic" transform="translate(113.4453125, 998.8705749511719)"><path d="M0,13.247047070576482 a70.4453125,13.247047070576482 0,0,0 140.890625,0 a70.4453125,13.247047070576482 0,0,0 -140.890625,0 l0,52.247047070576485 a70.4453125,13.247047070576482 0,0,0 140.890625,0 l0,-52.247047070576485" class="basic label-container outer-path" style="" transform="translate(-70.4453125, -39.37057060586473)"/><g class="label" style="" transform="translate(-62.9453125, -2)"><rect/><foreignObject width="125.890625" height="24"><div xmlns="http://www.w3.org/1999/xhtml" style="display: table-cell; white-space: nowrap; line-height: 1.5; max-width: 200px; text-align: center;"><span class="nodeLabel"><p>ReportAggregates</p></span></div></foreignObject></g></g></g></g></g><defs><filter id="my-svg-drop-shadow" height="130%" width="130%"><feDropShadow dx="4" dy="4" stdDeviation="0" flood-opacity="0.06" flood-color="#000000"/></filter></defs><defs><filter id="my-svg-drop-shadow-small" height="150%" width="150%"><feDropShadow dx="2" dy="2" stdDeviation="0" flood-opacity="0.06" flood-color="#000000"/></filter></defs></svg>